<svg id="visual" viewBox="0 0 1600 796" width="1600" height="796" xmlns="http://www.w3.org/2000/svg" xmlns:xlink="http://www.w3.org/1999/xlink" version="1.1"><rect x="0" y="0" width="1600" height="796" fill="#001220"></rect><defs><linearGradient id="grad1_0" x1="50.3%" y1="0%" x2="100%" y2="100%"><stop offset="9.798994974874375%" stop-color="#001220" stop-opacity="1"></stop><stop offset="90.20100502512562%" stop-color="#001220" stop-opacity="1"></stop></linearGradient></defs><defs><linearGradient id="grad2_0" x1="0%" y1="0%" x2="49.8%" y2="100%"><stop offset="9.798994974874375%" stop-color="#001220" stop-opacity="1"></stop><stop offset="90.20100502512562%" stop-color="#001220" stop-opacity="1"></stop></linearGradient></defs><g transform="translate(1600, 0)"><path d="M0 477.6C-61.7 465.9 -123.4 454.1 -177.9 429.6C-232.5 405.1 -280.1 367.8 -326 326C-371.9 284.2 -416.2 237.9 -441.2 182.8C-466.3 127.7 -471.9 63.8 -477.6 0L0 0Z" fill="#FBAE3C"></path></g><g transform="translate(0, 796)"><path d="M0 -477.6C64.3 -472.5 128.6 -467.4 182.8 -441.2C236.9 -415.1 280.8 -368 321.7 -321.7C362.6 -275.4 400.4 -229.9 425.9 -176.4C451.4 -122.9 464.5 -61.5 477.6 0L0 0Z" fill="#FBAE3C"></path></g></svg>