<svg id="visual" viewBox="0 0 1450 796" width="1450" height="796" xmlns="http://www.w3.org/2000/svg" xmlns:xlink="http://www.w3.org/1999/xlink" version="1.1"><rect x="0" y="0" width="1450" height="796" fill="#001220"></rect><defs><linearGradient id="grad1_0" x1="45.1%" y1="0%" x2="100%" y2="100%"><stop offset="13.567839195979897%" stop-color="#001220" stop-opacity="1"></stop><stop offset="86.4321608040201%" stop-color="#001220" stop-opacity="1"></stop></linearGradient></defs><defs><linearGradient id="grad2_0" x1="0%" y1="0%" x2="54.9%" y2="100%"><stop offset="13.567839195979897%" stop-color="#001220" stop-opacity="1"></stop><stop offset="86.4321608040201%" stop-color="#001220" stop-opacity="1"></stop></linearGradient></defs><g transform="translate(1450, 0)"><path d="M0 477.6C-60.3 466.4 -120.6 455.1 -179.9 434.2C-239.2 413.3 -297.5 382.8 -337.7 337.7C-377.9 292.6 -400.1 232.8 -420.4 174.1C-440.7 115.4 -459.1 57.7 -477.6 0L0 0Z" fill="#FBAE3C"></path></g><g transform="translate(0, 796)"><path d="M0 -477.6C58.7 -462 117.3 -446.4 176.4 -425.9C235.5 -405.4 295 -380.1 337.7 -337.7C380.4 -295.3 406.3 -235.9 426.8 -176.8C447.3 -117.7 462.5 -58.8 477.6 0L0 0Z" fill="#FBAE3C"></path></g></svg>