<svg id="visual" viewBox="0 0 1600 830" width="1600" height="830" xmlns="http://www.w3.org/2000/svg" xmlns:xlink="http://www.w3.org/1999/xlink" version="1.1"><rect x="0" y="0" width="1600" height="830" fill="#001220"></rect><path d="M0 549L38.2 560C76.3 571 152.7 593 228.8 601.7C305 610.3 381 605.7 457.2 600.2C533.3 594.7 609.7 588.3 685.8 575C762 561.7 838 541.3 914.2 542.7C990.3 544 1066.7 567 1142.8 568C1219 569 1295 548 1371.2 535.2C1447.3 522.3 1523.7 517.7 1561.8 515.3L1600 513L1600 831L1561.8 831C1523.7 831 1447.3 831 1371.2 831C1295 831 1219 831 1142.8 831C1066.7 831 990.3 831 914.2 831C838 831 762 831 685.8 831C609.7 831 533.3 831 457.2 831C381 831 305 831 228.8 831C152.7 831 76.3 831 38.2 831L0 831Z" fill="#fa7268"></path><path d="M0 641L38.2 626.7C76.3 612.3 152.7 583.7 228.8 576.8C305 570 381 585 457.2 588.8C533.3 592.7 609.7 585.3 685.8 583.3C762 581.3 838 584.7 914.2 580.2C990.3 575.7 1066.7 563.3 1142.8 559.7C1219 556 1295 561 1371.2 560C1447.3 559 1523.7 552 1561.8 548.5L1600 545L1600 831L1561.8 831C1523.7 831 1447.3 831 1371.2 831C1295 831 1219 831 1142.8 831C1066.7 831 990.3 831 914.2 831C838 831 762 831 685.8 831C609.7 831 533.3 831 457.2 831C381 831 305 831 228.8 831C152.7 831 76.3 831 38.2 831L0 831Z" fill="#ef5f67"></path><path d="M0 685L38.2 681.5C76.3 678 152.7 671 228.8 659.7C305 648.3 381 632.7 457.2 640C533.3 647.3 609.7 677.7 685.8 683.3C762 689 838 670 914.2 660C990.3 650 1066.7 649 1142.8 651.5C1219 654 1295 660 1371.2 660.3C1447.3 660.7 1523.7 655.3 1561.8 652.7L1600 650L1600 831L1561.8 831C1523.7 831 1447.3 831 1371.2 831C1295 831 1219 831 1142.8 831C1066.7 831 990.3 831 914.2 831C838 831 762 831 685.8 831C609.7 831 533.3 831 457.2 831C381 831 305 831 228.8 831C152.7 831 76.3 831 38.2 831L0 831Z" fill="#e34c67"></path><path d="M0 712L38.2 711.5C76.3 711 152.7 710 228.8 702.3C305 694.7 381 680.3 457.2 675.2C533.3 670 609.7 674 685.8 674.5C762 675 838 672 914.2 672.3C990.3 672.7 1066.7 676.3 1142.8 680.5C1219 684.7 1295 689.3 1371.2 696.7C1447.3 704 1523.7 714 1561.8 719L1600 724L1600 831L1561.8 831C1523.7 831 1447.3 831 1371.2 831C1295 831 1219 831 1142.8 831C1066.7 831 990.3 831 914.2 831C838 831 762 831 685.8 831C609.7 831 533.3 831 457.2 831C381 831 305 831 228.8 831C152.7 831 76.3 831 38.2 831L0 831Z" fill="#d53867"></path><path d="M0 774L38.2 769.8C76.3 765.7 152.7 757.3 228.8 750.7C305 744 381 739 457.2 742C533.3 745 609.7 756 685.8 765.2C762 774.3 838 781.7 914.2 776C990.3 770.3 1066.7 751.7 1142.8 745.8C1219 740 1295 747 1371.2 754.2C1447.3 761.3 1523.7 768.7 1561.8 772.3L1600 776L1600 831L1561.8 831C1523.7 831 1447.3 831 1371.2 831C1295 831 1219 831 1142.8 831C1066.7 831 990.3 831 914.2 831C838 831 762 831 685.8 831C609.7 831 533.3 831 457.2 831C381 831 305 831 228.8 831C152.7 831 76.3 831 38.2 831L0 831Z" fill="#c62368"></path></svg>