<svg id="visual" viewBox="0 0 1600 830" width="1600" height="830" xmlns="http://www.w3.org/2000/svg" xmlns:xlink="http://www.w3.org/1999/xlink" version="1.1"><rect x="0" y="0" width="1600" height="830" fill="#001220"></rect><defs><linearGradient id="grad1_0" x1="48.1%" y1="0%" x2="100%" y2="100%"><stop offset="11.44578313253012%" stop-color="#001220" stop-opacity="1"></stop><stop offset="88.55421686746988%" stop-color="#001220" stop-opacity="1"></stop></linearGradient></defs><defs><linearGradient id="grad2_0" x1="0%" y1="0%" x2="51.9%" y2="100%"><stop offset="11.44578313253012%" stop-color="#001220" stop-opacity="1"></stop><stop offset="88.55421686746988%" stop-color="#001220" stop-opacity="1"></stop></linearGradient></defs><g transform="translate(1600, 0)"><path d="M0 498C-65.3 490.6 -130.6 483.2 -190.6 460.1C-250.6 437 -305.3 398.3 -351.4 351.4C-397.6 304.6 -435.2 249.7 -458.2 189.8C-481.3 129.9 -489.6 64.9 -498 0L0 0Z" fill="#FBAE3C"></path></g><g transform="translate(0, 830)"><path d="M0 -498C66.8 -492.4 133.6 -486.9 190.6 -460.1C247.6 -433.3 294.8 -385.2 336.6 -336.6C378.4 -287.9 414.7 -238.7 440.7 -182.5C466.7 -126.3 482.3 -63.2 498 0L0 0Z" fill="#FBAE3C"></path></g></svg>