<svg id="visual" viewBox="0 0 1600 830" width="1600" height="830" xmlns="http://www.w3.org/2000/svg" xmlns:xlink="http://www.w3.org/1999/xlink" version="1.1"><path d="M0 275L24.2 279.2C48.3 283.3 96.7 291.7 145.2 275C193.7 258.3 242.3 216.7 290.8 195.8C339.3 175 387.7 175 436.2 173.7C484.7 172.3 533.3 169.7 581.8 171.2C630.3 172.7 678.7 178.3 727.2 221.2C775.7 264 824.3 344 872.8 339.8C921.3 335.7 969.7 247.3 1018.2 207.3C1066.7 167.3 1115.3 175.7 1163.8 206C1212.3 236.3 1260.7 288.7 1309.2 309.3C1357.7 330 1406.3 319 1454.8 319C1503.3 319 1551.7 330 1575.8 335.5L1600 341L1600 0L1575.8 0C1551.7 0 1503.3 0 1454.8 0C1406.3 0 1357.7 0 1309.2 0C1260.7 0 1212.3 0 1163.8 0C1115.3 0 1066.7 0 1018.2 0C969.7 0 921.3 0 872.8 0C824.3 0 775.7 0 727.2 0C678.7 0 630.3 0 581.8 0C533.3 0 484.7 0 436.2 0C387.7 0 339.3 0 290.8 0C242.3 0 193.7 0 145.2 0C96.7 0 48.3 0 24.2 0L0 0Z" fill="#ffa096"></path><path d="M0 416L24.2 427C48.3 438 96.7 460 145.2 460C193.7 460 242.3 438 290.8 436.7C339.3 435.3 387.7 454.7 436.2 461.7C484.7 468.7 533.3 463.3 581.8 460.7C630.3 458 678.7 458 727.2 478.7C775.7 499.3 824.3 540.7 872.8 548.8C921.3 557 969.7 532 1018.2 507.2C1066.7 482.3 1115.3 457.7 1163.8 463.3C1212.3 469 1260.7 505 1309.2 518.8C1357.7 532.7 1406.3 524.3 1454.8 522.8C1503.3 521.3 1551.7 526.7 1575.8 529.3L1600 532L1600 339L1575.8 333.5C1551.7 328 1503.3 317 1454.8 317C1406.3 317 1357.7 328 1309.2 307.3C1260.7 286.7 1212.3 234.3 1163.8 204C1115.3 173.7 1066.7 165.3 1018.2 205.3C969.7 245.3 921.3 333.7 872.8 337.8C824.3 342 775.7 262 727.2 219.2C678.7 176.3 630.3 170.7 581.8 169.2C533.3 167.7 484.7 170.3 436.2 171.7C387.7 173 339.3 173 290.8 193.8C242.3 214.7 193.7 256.3 145.2 273C96.7 289.7 48.3 281.3 24.2 277.2L0 273Z" fill="#fd8a7f"></path><path d="M0 532L24.2 540.3C48.3 548.7 96.7 565.3 145.2 575C193.7 584.7 242.3 587.3 290.8 594.3C339.3 601.3 387.7 612.7 436.2 618.3C484.7 624 533.3 624 581.8 626.7C630.3 629.3 678.7 634.7 727.2 647C775.7 659.3 824.3 678.7 872.8 678.7C921.3 678.7 969.7 659.3 1018.2 641.3C1066.7 623.3 1115.3 606.7 1163.8 604C1212.3 601.3 1260.7 612.7 1309.2 621C1357.7 629.3 1406.3 634.7 1454.8 644.3C1503.3 654 1551.7 668 1575.8 675L1600 682L1600 530L1575.8 527.3C1551.7 524.7 1503.3 519.3 1454.8 520.8C1406.3 522.3 1357.7 530.7 1309.2 516.8C1260.7 503 1212.3 467 1163.8 461.3C1115.3 455.7 1066.7 480.3 1018.2 505.2C969.7 530 921.3 555 872.8 546.8C824.3 538.7 775.7 497.3 727.2 476.7C678.7 456 630.3 456 581.8 458.7C533.3 461.3 484.7 466.7 436.2 459.7C387.7 452.7 339.3 433.3 290.8 434.7C242.3 436 193.7 458 145.2 458C96.7 458 48.3 436 24.2 425L0 414Z" fill="#fa7268"></path><path d="M0 673L24.2 680C48.3 687 96.7 701 145.2 701C193.7 701 242.3 687 290.8 681.5C339.3 676 387.7 679 436.2 691.5C484.7 704 533.3 726 581.8 738.3C630.3 750.7 678.7 753.3 727.2 753.3C775.7 753.3 824.3 750.7 872.8 749.3C921.3 748 969.7 748 1018.2 743.8C1066.7 739.7 1115.3 731.3 1163.8 720.3C1212.3 709.3 1260.7 695.7 1309.2 698.5C1357.7 701.3 1406.3 720.7 1454.8 733C1503.3 745.3 1551.7 750.7 1575.8 753.3L1600 756L1600 680L1575.8 673C1551.7 666 1503.3 652 1454.8 642.3C1406.3 632.7 1357.7 627.3 1309.2 619C1260.7 610.7 1212.3 599.3 1163.8 602C1115.3 604.7 1066.7 621.3 1018.2 639.3C969.7 657.3 921.3 676.7 872.8 676.7C824.3 676.7 775.7 657.3 727.2 645C678.7 632.7 630.3 627.3 581.8 624.7C533.3 622 484.7 622 436.2 616.3C387.7 610.7 339.3 599.3 290.8 592.3C242.3 585.3 193.7 582.7 145.2 573C96.7 563.3 48.3 546.7 24.2 538.3L0 530Z" fill="#dd6056"></path><path d="M0 831L24.2 831C48.3 831 96.7 831 145.2 831C193.7 831 242.3 831 290.8 831C339.3 831 387.7 831 436.2 831C484.7 831 533.3 831 581.8 831C630.3 831 678.7 831 727.2 831C775.7 831 824.3 831 872.8 831C921.3 831 969.7 831 1018.2 831C1066.7 831 1115.3 831 1163.8 831C1212.3 831 1260.7 831 1309.2 831C1357.7 831 1406.3 831 1454.8 831C1503.3 831 1551.7 831 1575.8 831L1600 831L1600 754L1575.8 751.3C1551.7 748.7 1503.3 743.3 1454.8 731C1406.3 718.7 1357.7 699.3 1309.2 696.5C1260.7 693.7 1212.3 707.3 1163.8 718.3C1115.3 729.3 1066.7 737.7 1018.2 741.8C969.7 746 921.3 746 872.8 747.3C824.3 748.7 775.7 751.3 727.2 751.3C678.7 751.3 630.3 748.7 581.8 736.3C533.3 724 484.7 702 436.2 689.5C387.7 677 339.3 674 290.8 679.5C242.3 685 193.7 699 145.2 699C96.7 699 48.3 685 24.2 678L0 671Z" fill="#c04e45"></path></svg>