<svg id="visual" viewBox="0 0 1600 820" width="1600" height="820" xmlns="http://www.w3.org/2000/svg" xmlns:xlink="http://www.w3.org/1999/xlink" version="1.1"><rect x="0" y="0" width="1600" height="820" fill="#001220"></rect><defs><linearGradient id="grad1_0" x1="48.8%" y1="0%" x2="100%" y2="100%"><stop offset="10.975609756097562%" stop-color="#001220" stop-opacity="1"></stop><stop offset="89.02439024390245%" stop-color="#001220" stop-opacity="1"></stop></linearGradient></defs><defs><linearGradient id="grad2_0" x1="0%" y1="0%" x2="51.3%" y2="100%"><stop offset="10.975609756097562%" stop-color="#001220" stop-opacity="1"></stop><stop offset="89.02439024390245%" stop-color="#001220" stop-opacity="1"></stop></linearGradient></defs><g transform="translate(1600, 0)"><path d="M0 492C-66.4 486.9 -132.9 481.8 -188.3 454.5C-243.7 427.3 -288.1 377.9 -330.2 330.2C-372.4 282.5 -412.3 236.5 -438.8 181.8C-465.4 127 -478.7 63.5 -492 0L0 0Z" fill="#FBAE3C"></path></g><g transform="translate(0, 820)"><path d="M0 -492C61.2 -475.5 122.4 -459 180.6 -436.1C238.9 -413.1 294.3 -383.7 342.2 -342.2C390.2 -300.8 430.8 -247.3 454.5 -188.3C478.3 -129.2 485.1 -64.6 492 0L0 0Z" fill="#FBAE3C"></path></g></svg>