<svg id="visual" viewBox="0 0 1600 810" width="1600" height="810" xmlns="http://www.w3.org/2000/svg" xmlns:xlink="http://www.w3.org/1999/xlink" version="1.1"><rect x="0" y="0" width="1600" height="810" fill="#001220"></rect><defs><linearGradient id="grad1_0" x1="49.4%" y1="0%" x2="100%" y2="100%"><stop offset="10.49382716049383%" stop-color="#001220" stop-opacity="1"></stop><stop offset="89.50617283950618%" stop-color="#001220" stop-opacity="1"></stop></linearGradient></defs><defs><linearGradient id="grad2_0" x1="0%" y1="0%" x2="50.6%" y2="100%"><stop offset="10.49382716049383%" stop-color="#001220" stop-opacity="1"></stop><stop offset="89.50617283950618%" stop-color="#001220" stop-opacity="1"></stop></linearGradient></defs><g transform="translate(1600, 0)"><path d="M0 486C-59 467 -117.9 448 -176.8 426.8C-235.7 405.6 -294.4 382.2 -342.2 342.2C-390 302.3 -426.9 245.8 -449 186C-471.1 126.2 -478.6 63.1 -486 0L0 0Z" fill="#FBAE3C"></path></g><g transform="translate(0, 810)"><path d="M0 -486C61.2 -469.5 122.4 -453.1 177.2 -427.8C232 -402.4 280.4 -368.3 328.1 -328.1C375.8 -287.9 422.8 -241.7 449 -186C475.2 -130.3 480.6 -65.1 486 0L0 0Z" fill="#FBAE3C"></path></g></svg>