<svg id="visual" viewBox="0 0 960 540" width="960" height="540" xmlns="http://www.w3.org/2000/svg" xmlns:xlink="http://www.w3.org/1999/xlink" version="1.1"><rect x="0" y="0" width="960" height="540" fill="#f2f3f4"></rect><path d="M0 243L14.5 241.5C29 240 58 237 87.2 230.2C116.3 223.3 145.7 212.7 174.8 201C204 189.3 233 176.7 262 180.2C291 183.7 320 203.3 349 203.5C378 203.7 407 184.3 436.2 176.5C465.3 168.7 494.7 172.3 523.8 173C553 173.7 582 171.3 611 178.2C640 185 669 201 698 205.8C727 210.7 756 204.3 785.2 197.5C814.3 190.7 843.7 183.3 872.8 190.7C902 198 931 220 945.5 231L960 242L960 0L945.5 0C931 0 902 0 872.8 0C843.7 0 814.3 0 785.2 0C756 0 727 0 698 0C669 0 640 0 611 0C582 0 553 0 523.8 0C494.7 0 465.3 0 436.2 0C407 0 378 0 349 0C320 0 291 0 262 0C233 0 204 0 174.8 0C145.7 0 116.3 0 87.2 0C58 0 29 0 14.5 0L0 0Z" fill="#0cbaba" stroke-linecap="round" stroke-linejoin="miter"></path></svg>