<svg id="visual" viewBox="0 0 900 600" width="900" height="600" xmlns="http://www.w3.org/2000/svg" xmlns:xlink="http://www.w3.org/1999/xlink" version="1.1"><rect x="0" y="0" width="900" height="600" fill="#001220"></rect><path d="M0 139L18.8 146.7C37.7 154.3 75.3 169.7 112.8 172.3C150.3 175 187.7 165 225.2 159C262.7 153 300.3 151 337.8 156.3C375.3 161.7 412.7 174.3 450.2 176.8C487.7 179.3 525.3 171.7 562.8 167.3C600.3 163 637.7 162 675.2 168.7C712.7 175.3 750.3 189.7 787.8 188.7C825.3 187.7 862.7 171.3 881.3 163.2L900 155L900 0L881.3 0C862.7 0 825.3 0 787.8 0C750.3 0 712.7 0 675.2 0C637.7 0 600.3 0 562.8 0C525.3 0 487.7 0 450.2 0C412.7 0 375.3 0 337.8 0C300.3 0 262.7 0 225.2 0C187.7 0 150.3 0 112.8 0C75.3 0 37.7 0 18.8 0L0 0Z" fill="#fa7268"></path><path d="M0 135L18.8 135C37.7 135 75.3 135 112.8 133C150.3 131 187.7 127 225.2 125.7C262.7 124.3 300.3 125.7 337.8 129.8C375.3 134 412.7 141 450.2 144.2C487.7 147.3 525.3 146.7 562.8 145C600.3 143.3 637.7 140.7 675.2 141.7C712.7 142.7 750.3 147.3 787.8 147C825.3 146.7 862.7 141.3 881.3 138.7L900 136L900 0L881.3 0C862.7 0 825.3 0 787.8 0C750.3 0 712.7 0 675.2 0C637.7 0 600.3 0 562.8 0C525.3 0 487.7 0 450.2 0C412.7 0 375.3 0 337.8 0C300.3 0 262.7 0 225.2 0C187.7 0 150.3 0 112.8 0C75.3 0 37.7 0 18.8 0L0 0Z" fill="#ef5f67"></path><path d="M0 95L18.8 100.5C37.7 106 75.3 117 112.8 116.5C150.3 116 187.7 104 225.2 98.7C262.7 93.3 300.3 94.7 337.8 92.7C375.3 90.7 412.7 85.3 450.2 92.2C487.7 99 525.3 118 562.8 121.2C600.3 124.3 637.7 111.7 675.2 103.3C712.7 95 750.3 91 787.8 93C825.3 95 862.7 103 881.3 107L900 111L900 0L881.3 0C862.7 0 825.3 0 787.8 0C750.3 0 712.7 0 675.2 0C637.7 0 600.3 0 562.8 0C525.3 0 487.7 0 450.2 0C412.7 0 375.3 0 337.8 0C300.3 0 262.7 0 225.2 0C187.7 0 150.3 0 112.8 0C75.3 0 37.7 0 18.8 0L0 0Z" fill="#e34c67"></path><path d="M0 56L18.8 61.7C37.7 67.3 75.3 78.7 112.8 79.2C150.3 79.7 187.7 69.3 225.2 70.2C262.7 71 300.3 83 337.8 83C375.3 83 412.7 71 450.2 66.5C487.7 62 525.3 65 562.8 66.3C600.3 67.7 637.7 67.3 675.2 72.7C712.7 78 750.3 89 787.8 89.5C825.3 90 862.7 80 881.3 75L900 70L900 0L881.3 0C862.7 0 825.3 0 787.8 0C750.3 0 712.7 0 675.2 0C637.7 0 600.3 0 562.8 0C525.3 0 487.7 0 450.2 0C412.7 0 375.3 0 337.8 0C300.3 0 262.7 0 225.2 0C187.7 0 150.3 0 112.8 0C75.3 0 37.7 0 18.8 0L0 0Z" fill="#d53867"></path><path d="M0 20L18.8 27C37.7 34 75.3 48 112.8 50C150.3 52 187.7 42 225.2 38.8C262.7 35.7 300.3 39.3 337.8 42.3C375.3 45.3 412.7 47.7 450.2 45.2C487.7 42.7 525.3 35.3 562.8 37.2C600.3 39 637.7 50 675.2 54.7C712.7 59.3 750.3 57.7 787.8 50.5C825.3 43.3 862.7 30.7 881.3 24.3L900 18L900 0L881.3 0C862.7 0 825.3 0 787.8 0C750.3 0 712.7 0 675.2 0C637.7 0 600.3 0 562.8 0C525.3 0 487.7 0 450.2 0C412.7 0 375.3 0 337.8 0C300.3 0 262.7 0 225.2 0C187.7 0 150.3 0 112.8 0C75.3 0 37.7 0 18.8 0L0 0Z" fill="#c62368"></path></svg>