<svg id="visual" viewBox="0 0 900 600" width="900" height="600" xmlns="http://www.w3.org/2000/svg" xmlns:xlink="http://www.w3.org/1999/xlink" version="1.1"><rect x="0" y="0" width="900" height="600" fill="#001220"></rect><path d="M0 459L18.8 451.3C37.7 443.7 75.3 428.3 112.8 425.7C150.3 423 187.7 433 225.2 439C262.7 445 300.3 447 337.8 441.7C375.3 436.3 412.7 423.7 450.2 421.2C487.7 418.7 525.3 426.3 562.8 430.7C600.3 435 637.7 436 675.2 429.3C712.7 422.7 750.3 408.3 787.8 409.3C825.3 410.3 862.7 426.7 881.3 434.8L900 443L900 601L881.3 601C862.7 601 825.3 601 787.8 601C750.3 601 712.7 601 675.2 601C637.7 601 600.3 601 562.8 601C525.3 601 487.7 601 450.2 601C412.7 601 375.3 601 337.8 601C300.3 601 262.7 601 225.2 601C187.7 601 150.3 601 112.8 601C75.3 601 37.7 601 18.8 601L0 601Z" fill="#fa7268"></path><path d="M0 463L18.8 463C37.7 463 75.3 463 112.8 465C150.3 467 187.7 471 225.2 472.3C262.7 473.7 300.3 472.3 337.8 468.2C375.3 464 412.7 457 450.2 453.8C487.7 450.7 525.3 451.3 562.8 453C600.3 454.7 637.7 457.3 675.2 456.3C712.7 455.3 750.3 450.7 787.8 451C825.3 451.3 862.7 456.7 881.3 459.3L900 462L900 601L881.3 601C862.7 601 825.3 601 787.8 601C750.3 601 712.7 601 675.2 601C637.7 601 600.3 601 562.8 601C525.3 601 487.7 601 450.2 601C412.7 601 375.3 601 337.8 601C300.3 601 262.7 601 225.2 601C187.7 601 150.3 601 112.8 601C75.3 601 37.7 601 18.8 601L0 601Z" fill="#ef5f67"></path><path d="M0 503L18.8 497.5C37.7 492 75.3 481 112.8 481.5C150.3 482 187.7 494 225.2 499.3C262.7 504.7 300.3 503.3 337.8 505.3C375.3 507.3 412.7 512.7 450.2 505.8C487.7 499 525.3 480 562.8 476.8C600.3 473.7 637.7 486.3 675.2 494.7C712.7 503 750.3 507 787.8 505C825.3 503 862.7 495 881.3 491L900 487L900 601L881.3 601C862.7 601 825.3 601 787.8 601C750.3 601 712.7 601 675.2 601C637.7 601 600.3 601 562.8 601C525.3 601 487.7 601 450.2 601C412.7 601 375.3 601 337.8 601C300.3 601 262.7 601 225.2 601C187.7 601 150.3 601 112.8 601C75.3 601 37.7 601 18.8 601L0 601Z" fill="#e34c67"></path><path d="M0 542L18.8 536.3C37.7 530.7 75.3 519.3 112.8 518.8C150.3 518.3 187.7 528.7 225.2 527.8C262.7 527 300.3 515 337.8 515C375.3 515 412.7 527 450.2 531.5C487.7 536 525.3 533 562.8 531.7C600.3 530.3 637.7 530.7 675.2 525.3C712.7 520 750.3 509 787.8 508.5C825.3 508 862.7 518 881.3 523L900 528L900 601L881.3 601C862.7 601 825.3 601 787.8 601C750.3 601 712.7 601 675.2 601C637.7 601 600.3 601 562.8 601C525.3 601 487.7 601 450.2 601C412.7 601 375.3 601 337.8 601C300.3 601 262.7 601 225.2 601C187.7 601 150.3 601 112.8 601C75.3 601 37.7 601 18.8 601L0 601Z" fill="#d53867"></path><path d="M0 578L18.8 571C37.7 564 75.3 550 112.8 548C150.3 546 187.7 556 225.2 559.2C262.7 562.3 300.3 558.7 337.8 555.7C375.3 552.7 412.7 550.3 450.2 552.8C487.7 555.3 525.3 562.7 562.8 560.8C600.3 559 637.7 548 675.2 543.3C712.7 538.7 750.3 540.3 787.8 547.5C825.3 554.7 862.7 567.3 881.3 573.7L900 580L900 601L881.3 601C862.7 601 825.3 601 787.8 601C750.3 601 712.7 601 675.2 601C637.7 601 600.3 601 562.8 601C525.3 601 487.7 601 450.2 601C412.7 601 375.3 601 337.8 601C300.3 601 262.7 601 225.2 601C187.7 601 150.3 601 112.8 601C75.3 601 37.7 601 18.8 601L0 601Z" fill="#c62368"></path></svg>